<mxfile host="app.diagrams.net" agent="Mozilla/5.0 (Windows NT 10.0; Win64; x64) AppleWebKit/537.36 (KHTML, like Gecko) Chrome/130.0.0.0 Safari/537.36" version="24.8.4">
  <diagram id="R2lEEEUBdFMjLlhIrx00" name="Page-1">
    <mxGraphModel dx="1050" dy="565" grid="1" gridSize="10" guides="1" tooltips="1" connect="1" arrows="1" fold="1" page="1" pageScale="1" pageWidth="850" pageHeight="1100" math="0" shadow="0" extFonts="Permanent Marker^https://fonts.googleapis.com/css?family=Permanent+Marker">
      <root>
        <mxCell id="0" />
        <mxCell id="1" parent="0" />
        <mxCell id="KTRMXUUYSEvYw87aaY1M-3" value="&lt;div&gt;User&lt;/div&gt;" style="shape=umlActor;verticalLabelPosition=bottom;verticalAlign=top;html=1;outlineConnect=0;labelPosition=center;align=center;fontFamily=Helvetica;" vertex="1" parent="1">
          <mxGeometry x="190" y="240" width="30" height="60" as="geometry" />
        </mxCell>
        <mxCell id="KTRMXUUYSEvYw87aaY1M-7" value="Login" style="ellipse;whiteSpace=wrap;html=1;" vertex="1" parent="1">
          <mxGeometry x="510" y="90" width="120" height="80" as="geometry" />
        </mxCell>
        <mxCell id="KTRMXUUYSEvYw87aaY1M-9" value="Register" style="ellipse;whiteSpace=wrap;html=1;" vertex="1" parent="1">
          <mxGeometry x="510" y="220" width="120" height="80" as="geometry" />
        </mxCell>
        <mxCell id="KTRMXUUYSEvYw87aaY1M-133" style="edgeStyle=orthogonalEdgeStyle;rounded=0;orthogonalLoop=1;jettySize=auto;html=1;exitX=1;exitY=0.3333333333333333;exitDx=0;exitDy=0;exitPerimeter=0;" edge="1" parent="1" source="KTRMXUUYSEvYw87aaY1M-16">
          <mxGeometry relative="1" as="geometry">
            <mxPoint x="80" y="340" as="targetPoint" />
          </mxGeometry>
        </mxCell>
        <mxCell id="KTRMXUUYSEvYw87aaY1M-16" value="Admin" style="shape=umlActor;verticalLabelPosition=bottom;verticalAlign=top;html=1;outlineConnect=0;" vertex="1" parent="1">
          <mxGeometry x="50" y="320" width="30" height="60" as="geometry" />
        </mxCell>
        <mxCell id="KTRMXUUYSEvYw87aaY1M-18" value="Connect" style="ellipse;whiteSpace=wrap;html=1;" vertex="1" parent="1">
          <mxGeometry x="305" y="150" width="120" height="80" as="geometry" />
        </mxCell>
        <mxCell id="KTRMXUUYSEvYw87aaY1M-21" value="Send Image" style="ellipse;whiteSpace=wrap;html=1;" vertex="1" parent="1">
          <mxGeometry x="680" y="140" width="120" height="80" as="geometry" />
        </mxCell>
        <mxCell id="KTRMXUUYSEvYw87aaY1M-25" value="" style="endArrow=classic;html=1;rounded=0;dashed=1;exitX=1;exitY=0.5;exitDx=0;exitDy=0;entryX=-0.007;entryY=0.408;entryDx=0;entryDy=0;entryPerimeter=0;" edge="1" parent="1" source="KTRMXUUYSEvYw87aaY1M-7" target="KTRMXUUYSEvYw87aaY1M-21">
          <mxGeometry relative="1" as="geometry">
            <mxPoint x="370" y="290" as="sourcePoint" />
            <mxPoint x="470" y="290" as="targetPoint" />
          </mxGeometry>
        </mxCell>
        <mxCell id="KTRMXUUYSEvYw87aaY1M-26" value="Include" style="edgeLabel;resizable=0;html=1;;align=center;verticalAlign=middle;rotation=45;" connectable="0" vertex="1" parent="KTRMXUUYSEvYw87aaY1M-25">
          <mxGeometry relative="1" as="geometry">
            <mxPoint x="10" y="-12" as="offset" />
          </mxGeometry>
        </mxCell>
        <mxCell id="KTRMXUUYSEvYw87aaY1M-28" value="" style="endArrow=classic;html=1;rounded=0;dashed=1;exitX=1;exitY=0.5;exitDx=0;exitDy=0;entryX=0;entryY=0.5;entryDx=0;entryDy=0;" edge="1" parent="1" source="KTRMXUUYSEvYw87aaY1M-9" target="KTRMXUUYSEvYw87aaY1M-21">
          <mxGeometry relative="1" as="geometry">
            <mxPoint x="640" y="140" as="sourcePoint" />
            <mxPoint x="679" y="193" as="targetPoint" />
          </mxGeometry>
        </mxCell>
        <mxCell id="KTRMXUUYSEvYw87aaY1M-29" value="Include" style="edgeLabel;resizable=0;html=1;;align=center;verticalAlign=middle;rotation=-55;" connectable="0" vertex="1" parent="KTRMXUUYSEvYw87aaY1M-28">
          <mxGeometry relative="1" as="geometry">
            <mxPoint x="10" y="5" as="offset" />
          </mxGeometry>
        </mxCell>
        <mxCell id="KTRMXUUYSEvYw87aaY1M-32" value="Parse image informations" style="ellipse;whiteSpace=wrap;html=1;" vertex="1" parent="1">
          <mxGeometry x="860" y="140" width="120" height="80" as="geometry" />
        </mxCell>
        <mxCell id="KTRMXUUYSEvYw87aaY1M-34" value="" style="endArrow=classic;html=1;rounded=0;dashed=1;exitX=1;exitY=0.5;exitDx=0;exitDy=0;entryX=0;entryY=0.5;entryDx=0;entryDy=0;" edge="1" parent="1" source="KTRMXUUYSEvYw87aaY1M-21" target="KTRMXUUYSEvYw87aaY1M-32">
          <mxGeometry relative="1" as="geometry">
            <mxPoint x="640" y="270" as="sourcePoint" />
            <mxPoint x="690" y="190" as="targetPoint" />
          </mxGeometry>
        </mxCell>
        <mxCell id="KTRMXUUYSEvYw87aaY1M-35" value="Include" style="edgeLabel;resizable=0;html=1;;align=center;verticalAlign=middle;rotation=0;" connectable="0" vertex="1" parent="KTRMXUUYSEvYw87aaY1M-34">
          <mxGeometry relative="1" as="geometry">
            <mxPoint y="10" as="offset" />
          </mxGeometry>
        </mxCell>
        <mxCell id="KTRMXUUYSEvYw87aaY1M-36" value="Verify identity" style="ellipse;whiteSpace=wrap;html=1;" vertex="1" parent="1">
          <mxGeometry x="780" y="20" width="120" height="80" as="geometry" />
        </mxCell>
        <mxCell id="KTRMXUUYSEvYw87aaY1M-37" value="" style="endArrow=classic;html=1;rounded=0;exitX=1;exitY=0;exitDx=0;exitDy=0;entryX=0;entryY=0.375;entryDx=0;entryDy=0;entryPerimeter=0;dashed=1;" edge="1" parent="1" source="KTRMXUUYSEvYw87aaY1M-7" target="KTRMXUUYSEvYw87aaY1M-36">
          <mxGeometry width="50" height="50" relative="1" as="geometry">
            <mxPoint x="650" y="280" as="sourcePoint" />
            <mxPoint x="700" y="230" as="targetPoint" />
            <Array as="points" />
          </mxGeometry>
        </mxCell>
        <mxCell id="KTRMXUUYSEvYw87aaY1M-38" value="" style="endArrow=classic;html=1;rounded=0;exitX=1;exitY=1;exitDx=0;exitDy=0;entryX=0.5;entryY=0;entryDx=0;entryDy=0;dashed=1;" edge="1" parent="1" source="KTRMXUUYSEvYw87aaY1M-36" target="KTRMXUUYSEvYw87aaY1M-32">
          <mxGeometry width="50" height="50" relative="1" as="geometry">
            <mxPoint x="622" y="112" as="sourcePoint" />
            <mxPoint x="790" y="60" as="targetPoint" />
            <Array as="points" />
          </mxGeometry>
        </mxCell>
        <mxCell id="KTRMXUUYSEvYw87aaY1M-39" value="Add identity" style="ellipse;whiteSpace=wrap;html=1;" vertex="1" parent="1">
          <mxGeometry x="780" y="250" width="120" height="80" as="geometry" />
        </mxCell>
        <mxCell id="KTRMXUUYSEvYw87aaY1M-42" value="Include" style="edgeLabel;resizable=0;html=1;;align=center;verticalAlign=middle;rotation=-15;" connectable="0" vertex="1" parent="1">
          <mxGeometry x="674.9290372135013" y="155.62274505255675" as="geometry">
            <mxPoint x="35.59193075588223" y="-82.60275095339432" as="offset" />
          </mxGeometry>
        </mxCell>
        <mxCell id="KTRMXUUYSEvYw87aaY1M-45" value="" style="endArrow=classic;html=1;rounded=0;dashed=1;exitX=1;exitY=0.5;exitDx=0;exitDy=0;entryX=-0.017;entryY=0.367;entryDx=0;entryDy=0;entryPerimeter=0;" edge="1" parent="1">
          <mxGeometry relative="1" as="geometry">
            <mxPoint x="632.04" y="260.32" as="sourcePoint" />
            <mxPoint x="780" y="279.68" as="targetPoint" />
          </mxGeometry>
        </mxCell>
        <mxCell id="KTRMXUUYSEvYw87aaY1M-46" value="Include" style="edgeLabel;resizable=0;html=1;;align=center;verticalAlign=middle;rotation=10;" connectable="0" vertex="1" parent="KTRMXUUYSEvYw87aaY1M-45">
          <mxGeometry relative="1" as="geometry">
            <mxPoint x="10" y="10" as="offset" />
          </mxGeometry>
        </mxCell>
        <mxCell id="KTRMXUUYSEvYw87aaY1M-48" value="Include" style="edgeLabel;resizable=0;html=1;;align=center;verticalAlign=middle;rotation=60;" connectable="0" vertex="1" parent="1">
          <mxGeometry x="909.9990372135012" y="110.00274505255675" as="geometry" />
        </mxCell>
        <mxCell id="KTRMXUUYSEvYw87aaY1M-51" value="" style="endArrow=classic;html=1;rounded=0;dashed=1;exitX=1;exitY=0;exitDx=0;exitDy=0;entryX=0.5;entryY=1;entryDx=0;entryDy=0;" edge="1" parent="1" source="KTRMXUUYSEvYw87aaY1M-39" target="KTRMXUUYSEvYw87aaY1M-32">
          <mxGeometry relative="1" as="geometry">
            <mxPoint x="642.04" y="270.32" as="sourcePoint" />
            <mxPoint x="790" y="289.68" as="targetPoint" />
          </mxGeometry>
        </mxCell>
        <mxCell id="KTRMXUUYSEvYw87aaY1M-52" value="Include" style="edgeLabel;resizable=0;html=1;;align=center;verticalAlign=middle;rotation=10;" connectable="0" vertex="1" parent="KTRMXUUYSEvYw87aaY1M-51">
          <mxGeometry relative="1" as="geometry">
            <mxPoint x="10" y="10" as="offset" />
          </mxGeometry>
        </mxCell>
        <mxCell id="KTRMXUUYSEvYw87aaY1M-59" value="" style="endArrow=classic;html=1;rounded=0;dashed=1;exitX=1;exitY=0.5;exitDx=0;exitDy=0;entryX=0;entryY=0.625;entryDx=0;entryDy=0;entryPerimeter=0;" edge="1" parent="1" target="KTRMXUUYSEvYw87aaY1M-7">
          <mxGeometry relative="1" as="geometry">
            <mxPoint x="425" y="177" as="sourcePoint" />
            <mxPoint x="474" y="220" as="targetPoint" />
          </mxGeometry>
        </mxCell>
        <mxCell id="KTRMXUUYSEvYw87aaY1M-60" value="Extends" style="edgeLabel;resizable=0;html=1;;align=center;verticalAlign=middle;rotation=-25;" connectable="0" vertex="1" parent="KTRMXUUYSEvYw87aaY1M-59">
          <mxGeometry relative="1" as="geometry">
            <mxPoint x="-7" y="-9" as="offset" />
          </mxGeometry>
        </mxCell>
        <mxCell id="KTRMXUUYSEvYw87aaY1M-61" value="" style="endArrow=classic;html=1;rounded=0;dashed=1;exitX=0.982;exitY=0.728;exitDx=0;exitDy=0;entryX=0;entryY=0.403;entryDx=0;entryDy=0;entryPerimeter=0;exitPerimeter=0;" edge="1" parent="1" source="KTRMXUUYSEvYw87aaY1M-18" target="KTRMXUUYSEvYw87aaY1M-9">
          <mxGeometry relative="1" as="geometry">
            <mxPoint x="435" y="187" as="sourcePoint" />
            <mxPoint x="520" y="150" as="targetPoint" />
          </mxGeometry>
        </mxCell>
        <mxCell id="KTRMXUUYSEvYw87aaY1M-62" value="Extends" style="edgeLabel;resizable=0;html=1;;align=center;verticalAlign=middle;rotation=30;" connectable="0" vertex="1" parent="KTRMXUUYSEvYw87aaY1M-61">
          <mxGeometry relative="1" as="geometry">
            <mxPoint x="3" y="-10" as="offset" />
          </mxGeometry>
        </mxCell>
        <mxCell id="KTRMXUUYSEvYw87aaY1M-64" value="Check appointments" style="ellipse;whiteSpace=wrap;html=1;" vertex="1" parent="1">
          <mxGeometry x="270" y="410" width="120" height="80" as="geometry" />
        </mxCell>
        <mxCell id="KTRMXUUYSEvYw87aaY1M-65" value="Check appointments for washing machine" style="ellipse;whiteSpace=wrap;html=1;" vertex="1" parent="1">
          <mxGeometry x="475" y="340" width="120" height="80" as="geometry" />
        </mxCell>
        <mxCell id="KTRMXUUYSEvYw87aaY1M-66" value="Check appointments for parking slot" style="ellipse;whiteSpace=wrap;html=1;" vertex="1" parent="1">
          <mxGeometry x="475" y="460" width="120" height="80" as="geometry" />
        </mxCell>
        <mxCell id="KTRMXUUYSEvYw87aaY1M-72" value="Send announcement" style="ellipse;whiteSpace=wrap;html=1;" vertex="1" parent="1">
          <mxGeometry x="270" y="630" width="120" height="80" as="geometry" />
        </mxCell>
        <mxCell id="KTRMXUUYSEvYw87aaY1M-73" value="Send private message" style="ellipse;whiteSpace=wrap;html=1;" vertex="1" parent="1">
          <mxGeometry x="475" y="750" width="120" height="80" as="geometry" />
        </mxCell>
        <mxCell id="KTRMXUUYSEvYw87aaY1M-74" value="Search person" style="ellipse;whiteSpace=wrap;html=1;" vertex="1" parent="1">
          <mxGeometry x="270" y="750" width="120" height="80" as="geometry" />
        </mxCell>
        <mxCell id="KTRMXUUYSEvYw87aaY1M-81" value="" style="endArrow=block;html=1;rounded=0;exitX=1;exitY=0.5;exitDx=0;exitDy=0;entryX=0;entryY=0.5;entryDx=0;entryDy=0;endFill=0;" edge="1" parent="1" source="KTRMXUUYSEvYw87aaY1M-64" target="KTRMXUUYSEvYw87aaY1M-65">
          <mxGeometry relative="1" as="geometry">
            <mxPoint x="418" y="18" as="sourcePoint" />
            <mxPoint x="505" y="62" as="targetPoint" />
          </mxGeometry>
        </mxCell>
        <mxCell id="KTRMXUUYSEvYw87aaY1M-83" value="" style="endArrow=block;html=1;rounded=0;exitX=1;exitY=0.5;exitDx=0;exitDy=0;entryX=0;entryY=0.5;entryDx=0;entryDy=0;endFill=0;" edge="1" parent="1" source="KTRMXUUYSEvYw87aaY1M-64" target="KTRMXUUYSEvYw87aaY1M-66">
          <mxGeometry relative="1" as="geometry">
            <mxPoint x="428" y="28" as="sourcePoint" />
            <mxPoint x="515" y="72" as="targetPoint" />
          </mxGeometry>
        </mxCell>
        <mxCell id="KTRMXUUYSEvYw87aaY1M-85" value="Select a free slot" style="ellipse;whiteSpace=wrap;html=1;" vertex="1" parent="1">
          <mxGeometry x="655" y="410" width="120" height="80" as="geometry" />
        </mxCell>
        <mxCell id="KTRMXUUYSEvYw87aaY1M-89" value="" style="endArrow=classic;html=1;rounded=0;dashed=1;exitX=1.013;exitY=0.593;exitDx=0;exitDy=0;entryX=0;entryY=0.5;entryDx=0;entryDy=0;exitPerimeter=0;" edge="1" parent="1" source="KTRMXUUYSEvYw87aaY1M-65" target="KTRMXUUYSEvYw87aaY1M-85">
          <mxGeometry relative="1" as="geometry">
            <mxPoint x="400" y="460" as="sourcePoint" />
            <mxPoint x="485" y="510" as="targetPoint" />
          </mxGeometry>
        </mxCell>
        <mxCell id="KTRMXUUYSEvYw87aaY1M-90" value="Extends" style="edgeLabel;resizable=0;html=1;;align=center;verticalAlign=middle;rotation=45;" connectable="0" vertex="1" parent="KTRMXUUYSEvYw87aaY1M-89">
          <mxGeometry relative="1" as="geometry">
            <mxPoint x="3" y="-10" as="offset" />
          </mxGeometry>
        </mxCell>
        <mxCell id="KTRMXUUYSEvYw87aaY1M-91" value="" style="endArrow=classic;html=1;rounded=0;dashed=1;exitX=1.013;exitY=0.593;exitDx=0;exitDy=0;entryX=0;entryY=0.625;entryDx=0;entryDy=0;exitPerimeter=0;entryPerimeter=0;" edge="1" parent="1" target="KTRMXUUYSEvYw87aaY1M-85">
          <mxGeometry relative="1" as="geometry">
            <mxPoint x="595" y="500" as="sourcePoint" />
            <mxPoint x="653" y="563" as="targetPoint" />
          </mxGeometry>
        </mxCell>
        <mxCell id="KTRMXUUYSEvYw87aaY1M-92" value="Extends" style="edgeLabel;resizable=0;html=1;;align=center;verticalAlign=middle;rotation=-30;" connectable="0" vertex="1" parent="KTRMXUUYSEvYw87aaY1M-91">
          <mxGeometry relative="1" as="geometry">
            <mxPoint y="-10" as="offset" />
          </mxGeometry>
        </mxCell>
        <mxCell id="KTRMXUUYSEvYw87aaY1M-95" value="Add an appointment for wasing machine" style="ellipse;whiteSpace=wrap;html=1;" vertex="1" parent="1">
          <mxGeometry x="1066" y="370" width="120" height="80" as="geometry" />
        </mxCell>
        <mxCell id="KTRMXUUYSEvYw87aaY1M-96" value="Add an appointment for parking slot" style="ellipse;whiteSpace=wrap;html=1;" vertex="1" parent="1">
          <mxGeometry x="1066" y="470" width="120" height="80" as="geometry" />
        </mxCell>
        <mxCell id="KTRMXUUYSEvYw87aaY1M-97" value="Add an appointment" style="ellipse;whiteSpace=wrap;html=1;" vertex="1" parent="1">
          <mxGeometry x="855" y="410" width="120" height="80" as="geometry" />
        </mxCell>
        <mxCell id="KTRMXUUYSEvYw87aaY1M-98" value="" style="endArrow=block;html=1;rounded=0;exitX=1;exitY=0.5;exitDx=0;exitDy=0;entryX=0;entryY=0.5;entryDx=0;entryDy=0;endFill=0;" edge="1" parent="1" source="KTRMXUUYSEvYw87aaY1M-97" target="KTRMXUUYSEvYw87aaY1M-95">
          <mxGeometry relative="1" as="geometry">
            <mxPoint x="985" y="710" as="sourcePoint" />
            <mxPoint x="1070" y="640" as="targetPoint" />
          </mxGeometry>
        </mxCell>
        <mxCell id="KTRMXUUYSEvYw87aaY1M-99" value="" style="endArrow=block;html=1;rounded=0;exitX=1;exitY=0.5;exitDx=0;exitDy=0;entryX=0;entryY=0.5;entryDx=0;entryDy=0;endFill=0;" edge="1" parent="1" source="KTRMXUUYSEvYw87aaY1M-97" target="KTRMXUUYSEvYw87aaY1M-96">
          <mxGeometry relative="1" as="geometry">
            <mxPoint x="985" y="460" as="sourcePoint" />
            <mxPoint x="1076" y="420" as="targetPoint" />
          </mxGeometry>
        </mxCell>
        <mxCell id="KTRMXUUYSEvYw87aaY1M-100" value="" style="endArrow=classic;html=1;rounded=0;dashed=1;exitX=1;exitY=0.5;exitDx=0;exitDy=0;entryX=0;entryY=0.5;entryDx=0;entryDy=0;" edge="1" parent="1" source="KTRMXUUYSEvYw87aaY1M-85" target="KTRMXUUYSEvYw87aaY1M-97">
          <mxGeometry relative="1" as="geometry">
            <mxPoint x="605" y="510" as="sourcePoint" />
            <mxPoint x="665" y="470" as="targetPoint" />
          </mxGeometry>
        </mxCell>
        <mxCell id="KTRMXUUYSEvYw87aaY1M-101" value="Extends" style="edgeLabel;resizable=0;html=1;;align=center;verticalAlign=middle;rotation=0;" connectable="0" vertex="1" parent="KTRMXUUYSEvYw87aaY1M-100">
          <mxGeometry relative="1" as="geometry">
            <mxPoint y="-10" as="offset" />
          </mxGeometry>
        </mxCell>
        <mxCell id="KTRMXUUYSEvYw87aaY1M-104" value="" style="endArrow=classic;html=1;rounded=0;dashed=1;exitX=1;exitY=0.5;exitDx=0;exitDy=0;entryX=0;entryY=0.5;entryDx=0;entryDy=0;" edge="1" parent="1" source="KTRMXUUYSEvYw87aaY1M-74" target="KTRMXUUYSEvYw87aaY1M-73">
          <mxGeometry relative="1" as="geometry">
            <mxPoint x="670" y="710" as="sourcePoint" />
            <mxPoint x="595" y="990" as="targetPoint" />
          </mxGeometry>
        </mxCell>
        <mxCell id="KTRMXUUYSEvYw87aaY1M-105" value="Extends" style="edgeLabel;resizable=0;html=1;;align=center;verticalAlign=middle;rotation=0;" connectable="0" vertex="1" parent="KTRMXUUYSEvYw87aaY1M-104">
          <mxGeometry relative="1" as="geometry">
            <mxPoint x="6" y="-11" as="offset" />
          </mxGeometry>
        </mxCell>
        <mxCell id="KTRMXUUYSEvYw87aaY1M-115" value="Approve parking appointment" style="ellipse;whiteSpace=wrap;html=1;" vertex="1" parent="1">
          <mxGeometry x="270" y="520" width="120" height="80" as="geometry" />
        </mxCell>
        <mxCell id="KTRMXUUYSEvYw87aaY1M-116" value="" style="endArrow=none;html=1;rounded=0;entryX=0;entryY=0.5;entryDx=0;entryDy=0;" edge="1" parent="1" source="KTRMXUUYSEvYw87aaY1M-3" target="KTRMXUUYSEvYw87aaY1M-18">
          <mxGeometry width="50" height="50" relative="1" as="geometry">
            <mxPoint x="520" y="340" as="sourcePoint" />
            <mxPoint x="570" y="290" as="targetPoint" />
            <Array as="points" />
          </mxGeometry>
        </mxCell>
        <mxCell id="KTRMXUUYSEvYw87aaY1M-120" value="Student" style="shape=umlActor;verticalLabelPosition=bottom;verticalAlign=top;html=1;outlineConnect=0;" vertex="1" parent="1">
          <mxGeometry x="50" y="140" width="30" height="60" as="geometry" />
        </mxCell>
        <mxCell id="KTRMXUUYSEvYw87aaY1M-125" value="" style="endArrow=block;html=1;rounded=0;exitX=1;exitY=0.3333333333333333;exitDx=0;exitDy=0;entryX=0;entryY=0.3333333333333333;entryDx=0;entryDy=0;endFill=0;exitPerimeter=0;entryPerimeter=0;" edge="1" parent="1" source="KTRMXUUYSEvYw87aaY1M-16" target="KTRMXUUYSEvYw87aaY1M-3">
          <mxGeometry relative="1" as="geometry">
            <mxPoint x="400" y="460" as="sourcePoint" />
            <mxPoint x="485" y="390" as="targetPoint" />
          </mxGeometry>
        </mxCell>
        <mxCell id="KTRMXUUYSEvYw87aaY1M-126" value="" style="endArrow=block;html=1;rounded=0;exitX=1;exitY=0.3333333333333333;exitDx=0;exitDy=0;endFill=0;exitPerimeter=0;entryX=0;entryY=0.3333333333333333;entryDx=0;entryDy=0;entryPerimeter=0;" edge="1" parent="1" source="KTRMXUUYSEvYw87aaY1M-120" target="KTRMXUUYSEvYw87aaY1M-3">
          <mxGeometry relative="1" as="geometry">
            <mxPoint x="90" y="350" as="sourcePoint" />
            <mxPoint x="180" y="260" as="targetPoint" />
          </mxGeometry>
        </mxCell>
        <mxCell id="KTRMXUUYSEvYw87aaY1M-127" value="" style="endArrow=none;html=1;rounded=0;exitX=1;exitY=0.3333333333333333;exitDx=0;exitDy=0;exitPerimeter=0;entryX=0;entryY=0;entryDx=0;entryDy=0;" edge="1" parent="1" source="KTRMXUUYSEvYw87aaY1M-16" target="KTRMXUUYSEvYw87aaY1M-72">
          <mxGeometry width="50" height="50" relative="1" as="geometry">
            <mxPoint x="390" y="470" as="sourcePoint" />
            <mxPoint x="440" y="420" as="targetPoint" />
          </mxGeometry>
        </mxCell>
        <mxCell id="KTRMXUUYSEvYw87aaY1M-128" value="" style="endArrow=none;html=1;rounded=0;entryX=0;entryY=0.375;entryDx=0;entryDy=0;entryPerimeter=0;" edge="1" parent="1" target="KTRMXUUYSEvYw87aaY1M-74">
          <mxGeometry width="50" height="50" relative="1" as="geometry">
            <mxPoint x="80" y="160" as="sourcePoint" />
            <mxPoint x="170" y="680" as="targetPoint" />
          </mxGeometry>
        </mxCell>
        <mxCell id="KTRMXUUYSEvYw87aaY1M-132" value="" style="endArrow=none;html=1;rounded=0;entryX=0;entryY=0;entryDx=0;entryDy=0;" edge="1" parent="1" target="KTRMXUUYSEvYw87aaY1M-64">
          <mxGeometry width="50" height="50" relative="1" as="geometry">
            <mxPoint x="220" y="260" as="sourcePoint" />
            <mxPoint x="315" y="200" as="targetPoint" />
            <Array as="points" />
          </mxGeometry>
        </mxCell>
        <mxCell id="KTRMXUUYSEvYw87aaY1M-134" value="" style="endArrow=none;html=1;rounded=0;exitX=0;exitY=0.5;exitDx=0;exitDy=0;entryX=1;entryY=0.3333333333333333;entryDx=0;entryDy=0;entryPerimeter=0;" edge="1" parent="1" source="KTRMXUUYSEvYw87aaY1M-115" target="KTRMXUUYSEvYw87aaY1M-16">
          <mxGeometry width="50" height="50" relative="1" as="geometry">
            <mxPoint x="340" y="540" as="sourcePoint" />
            <mxPoint x="390" y="490" as="targetPoint" />
          </mxGeometry>
        </mxCell>
      </root>
    </mxGraphModel>
  </diagram>
</mxfile>
